<svg xmlns="http://www.w3.org/2000/svg" viewBox="0 0 64 64">
  <!-- 白い角丸カード背景 -->
  <rect x="2" y="2" width="60" height="60" rx="14" fill="#ffffff" />
  
  <!-- 電卓のダークグレー外枠 -->
  <rect x="14" y="10" width="36" height="44" rx="6" fill="#323e48" />
  
  <!-- 電卓内側の白いベース領域 -->
  <rect x="16" y="12" width="32" height="40" rx="4" fill="#ffffff" />
  
  <!-- 画面（青緑色） -->
  <rect x="18" y="14" width="28" height="15" rx="2.5" fill="#4db6ac" />
  
  <!-- 画面の文字「P」 -->
  <text x="32" y="25" font-family="system-ui, -apple-system, sans-serif" font-weight="bold" font-size="13" fill="#ffffff" text-anchor="middle">P</text>
  
  <!-- ボタン群 -->
  <!-- 1行目: オレンジ、イエロー、ライトブルー -->
  <rect x="19" y="31.5" width="7" height="5" rx="1.5" fill="#f57c00" />
  <rect x="28.5" y="31.5" width="7" height="5" rx="1.5" fill="#fbc02d" />
  <rect x="38" y="31.5" width="7" height="5" rx="1.5" fill="#00b0ff" />
  
  <!-- 2行目と3行目 -->
  <!-- 左中: ピンク -->
  <rect x="19" y="38" width="7" height="5" rx="1.5" fill="#ff5252" />
  <!-- 中中: 水色 -->
  <rect x="28.5" y="38" width="7" height="5" rx="1.5" fill="#26c6da" />
  
  <!-- 左下: 水色 -->
  <rect x="19" y="44.5" width="7" height="5" rx="1.5" fill="#00e5ff" />
  <!-- 中下: 青 -->
  <rect x="28.5" y="44.5" width="7" height="5" rx="1.5" fill="#0288d1" />
  
  <!-- 右下（縦長2マス分）: 青 + マイナス記号 -->
  <rect x="38" y="38" width="7" height="11.5" rx="1.5" fill="#0091ea" />
  <rect x="40.5" y="43" width="2" height="1.5" fill="#ffffff" />
</svg>

